HIERARCHY
ROOT Hips
{
 OFFSET 0.000000 0.000000 0.000000
 CHANNELS 6 Xposition Yposition Zposition Yrotation Xrotation Zrotation
 JOINT Chest
 {
  OFFSET 0.000000 9.585900 0.002600
  CHANNELS 3 Yrotation Xrotation Zrotation
  JOINT Chest2
  {
   OFFSET 0.000000 9.601200 -0.005300
   CHANNELS 3 Yrotation Xrotation Zrotation
   JOINT Chest3
   {
    OFFSET 0.000000 9.561800 0.000000
    CHANNELS 3 Yrotation Xrotation Zrotation
    JOINT Chest4
    {
     OFFSET 0.000000 9.552100 0.000000
     CHANNELS 3 Yrotation Xrotation Zrotation
     JOINT Neck
     {
      OFFSET 0.000000 14.453000 0.000000
      CHANNELS 3 Yrotation Xrotation Zrotation
      JOINT Head
      {
       OFFSET 0.000000 8.936500 -0.011300
       CHANNELS 3 Yrotation Xrotation Zrotation
       End Site
       {
        OFFSET 0.000000 17.073600 -0.006000
       }
      }
     }
     JOINT RightCollar
     {
      OFFSET -2.921100 9.558500 0.000000
      CHANNELS 3 Yrotation Xrotation Zrotation
      JOINT RightShoulder
      {
       OFFSET -13.519700 0.000000 0.000000
       CHANNELS 3 Yrotation Xrotation Zrotation
       JOINT RightElbow
       {
        OFFSET 0.000000 -29.696600 0.000000
        CHANNELS 3 Yrotation Xrotation Zrotation
        JOINT RightWrist
        {
         OFFSET 0.000000 -24.004700 0.000000
         CHANNELS 3 Yrotation Xrotation Zrotation
         End Site
         {
          OFFSET 0.000000 -17.728500 0.000000
         }
        }
       }
      }
     }
     JOINT LeftCollar
     {
      OFFSET 2.921100 9.558500 0.000000
      CHANNELS 3 Yrotation Xrotation Zrotation
      JOINT LeftShoulder
      {
       OFFSET 13.519700 0.000000 0.000000
       CHANNELS 3 Yrotation Xrotation Zrotation
       JOINT LeftElbow
       {
        OFFSET 0.000000 -29.696600 0.000000
        CHANNELS 3 Yrotation Xrotation Zrotation
        JOINT LeftWrist
        {
         OFFSET 0.000000 -24.004700 0.000000
         CHANNELS 3 Yrotation Xrotation Zrotation
         End Site
         {
          OFFSET 0.000000 -17.728500 0.000000
         }
        }
       }
      }
     }
    }
   }
  }
 }
 JOINT RightHip
 {
  OFFSET -7.771700 -0.012900 -0.001300
  CHANNELS 3 Yrotation Xrotation Zrotation
  JOINT RightKnee
  {
   OFFSET 0.000000 -40.869800 0.001200
   CHANNELS 3 Yrotation Xrotation Zrotation
   JOINT RightAnkle
   {
    OFFSET 0.000000 -39.717900 0.002100
    CHANNELS 3 Yrotation Xrotation Zrotation
    JOINT RightToe
    {
     OFFSET 0.000000 -4.965400 11.033500
     CHANNELS 3 Yrotation Xrotation Zrotation
     End Site
     {
      OFFSET 0.000000 -1.423100 5.872300
     }
    }
   }
  }
 }
 JOINT LeftHip
 {
  OFFSET 7.771700 -0.012900 -0.001300
  CHANNELS 3 Yrotation Xrotation Zrotation
  JOINT LeftKnee
  {
   OFFSET 0.000000 -40.869800 0.001200
   CHANNELS 3 Yrotation Xrotation Zrotation
   JOINT LeftAnkle
   {
    OFFSET 0.000000 -39.717900 0.002100
    CHANNELS 3 Yrotation Xrotation Zrotation
    JOINT LeftToe
    {
     OFFSET 0.000000 -4.965400 11.033500
     CHANNELS 3 Yrotation Xrotation Zrotation
     End Site
     {
      OFFSET 0.000000 -1.423100 5.872300
     }
    }
   }
  }
 }
}
MOTION
Frames: 9
Frame Time: 0.008333
-126.884755 48.980772 19.771477 174.693666 -31.084240 -4.639226 1.062830 18.244046 1.111374 0.113182 2.070900 0.098255 0.195287 3.434670 0.194646 0.974713 15.957675 0.853770 3.264994 18.956496 -2.978872 6.918975 -0.343617 -6.556266 -2.326545 -1.935240 -3.042650 3.950824 -10.444892 -12.376952 -41.708094 -52.288542 90.523328 3.316477 3.595527 -13.300479 0.853137 -1.889755 2.605308 -6.704010 -4.493017 15.776968 78.618552 -67.019920 -114.556589 5.154089 11.568185 12.892631 -6.940109 -52.922914 -4.730513 -156.680525 82.716291 -144.287190 -30.301150 -3.744693 -3.225327 -0.141423 -12.417423 0.030274 -15.424156 -55.074413 22.419414 -76.529690 65.720279 -81.269362 30.622094 5.782884 15.247194 -0.009439 -0.192116 -0.024127
-126.886358 49.001964 19.778654 174.745877 -31.075539 -4.672093 1.033601 18.239293 1.148102 0.113603 2.075778 0.113853 0.183718 3.436430 0.184443 0.945233 15.961655 0.858843 3.289245 18.989476 -2.957145 6.943011 -0.285645 -6.526015 -2.330709 -1.896335 -3.032320 3.958320 -10.483265 -12.386404 -41.663151 -52.304911 90.484663 3.299472 3.592945 -13.297466 0.850691 -1.877807 2.595998 -6.722000 -4.484127 15.776101 78.657404 -67.017131 -114.565141 5.151161 11.595308 12.885036 -6.896038 -52.944655 -4.746791 -156.717678 82.724731 -144.312339 -30.300560 -3.681558 -3.305381 -0.123667 -12.435174 0.120584 -15.504213 -55.075610 22.435918 -76.485266 65.744671 -81.219472 30.609321 5.829467 15.229351 0.000049 -0.219712 -0.017376
-126.892365 49.020875 19.784114 174.811910 -31.079406 -4.694398 0.984771 18.252873 1.166071 0.106538 2.074034 0.101341 0.184678 3.440155 0.203364 0.923071 15.969082 0.867589 3.307721 19.019871 -2.933383 6.967194 -0.226549 -6.490898 -2.336421 -1.871202 -3.036026 3.959638 -10.508887 -12.393428 -41.643723 -52.289358 90.464409 3.323590 3.589185 -13.282821 0.852843 -1.883516 2.562062 -6.749148 -4.459551 15.798683 78.514664 -67.050646 -114.439009 5.164533 11.507227 12.902039 -6.886619 -52.949111 -4.774987 -156.656430 82.729620 -144.264891 -30.300278 -3.628212 -3.331876 -0.083406 -12.449417 0.158193 -15.555659 -55.070930 22.415548 -76.456415 65.758247 -81.194599 30.601879 5.858936 15.225040 0.015136 -0.243620 -0.006405
-126.896492 49.036626 19.790966 174.870419 -31.078921 -4.734192 0.963403 18.260763 1.242454 0.089381 2.072434 0.073313 0.181240 3.445527 0.207446 0.895089 15.978986 0.901782 3.323006 19.049452 -2.934869 6.991324 -0.169978 -6.450726 -2.326518 -1.881935 -3.097794 3.958570 -10.514622 -12.395169 -41.673161 -52.250480 90.476023 3.360035 3.593641 -13.261560 0.849836 -1.871938 2.528542 -6.758477 -4.456521 15.803036 78.486379 -67.051611 -114.410390 5.169230 11.501465 12.896889 -6.901989 -52.955297 -4.765418 -156.382761 82.712235 -144.010526 -30.250591 -3.583492 -3.346344 -0.067240 -12.455931 0.189476 -15.622196 -55.064237 22.425651 -76.416352 65.771443 -81.155411 30.614924 5.934420 15.229747 0.018437 -0.310660 -0.003351
-126.904135 49.050569 19.796329 174.926203 -31.086290 -4.759760 0.930596 18.277379 1.273806 0.084704 2.071417 0.075643 0.178595 3.453472 0.210227 0.873320 15.991126 0.926216 3.337151 19.074507 -2.921360 7.012391 -0.119682 -6.404832 -2.337302 -1.867502 -3.113488 3.932757 -10.509907 -12.374307 -41.643901 -52.316039 90.473670 3.368388 3.583440 -13.255302 0.833905 -1.843983 2.553214 -6.755394 -4.478554 15.770573 78.483222 -67.047384 -114.414718 5.177997 11.499346 12.894762 -6.854715 -52.959327 -4.804958 -155.976430 82.667749 -143.605987 -30.195211 -3.521073 -3.389967 -0.102845 -12.481621 0.272431 -15.647576 -55.067027 22.401911 -76.404358 65.782554 -81.134462 30.607659 5.977912 15.229103 0.027891 -0.338973 0.004679
-126.915061 49.062987 19.800784 174.975472 -31.096081 -4.769875 0.901852 18.298651 1.294246 0.079003 2.072006 0.075205 0.178413 3.460503 0.216359 0.856146 16.006376 0.951810 3.348939 19.093070 -2.904854 7.029455 -0.076959 -6.354825 -2.355374 -1.858654 -3.131258 3.914847 -10.503023 -12.365564 -41.654914 -52.360155 90.502251 3.390124 3.582876 -13.250051 0.828684 -1.847677 2.536251 -6.761430 -4.489995 15.753882 78.399830 -67.071512 -114.363456 5.186876 11.475859 12.903476 -6.726753 -52.965338 -4.918126 -155.692386 82.616842 -143.288662 -30.158161 -3.462180 -3.395132 -0.123815 -12.509130 0.321817 -15.646636 -55.063770 22.360480 -76.374104 65.786211 -81.100292 30.592240 6.009535 15.227242 0.043460 -0.354455 0.017631
-126.926173 49.074747 19.804530 175.019790 -31.108580 -4.782337 0.876685 18.324251 1.319497 0.093369 2.086747 0.111626 0.156884 3.453981 0.186787 0.842305 16.016409 0.968127 3.364159 19.112089 -2.875173 7.046652 -0.042998 -6.303897 -2.371784 -1.846425 -3.141899 3.915971 -10.521827 -12.387843 -41.689221 -52.363612 90.532121 3.412187 3.590667 -13.241114 0.827986 -1.848295 2.527552 -6.774575 -4.502566 15.739052 78.409280 -67.069521 -114.378484 5.175084 11.498938 12.896637 -6.644509 -52.960593 -4.999081 -155.543383 82.585119 -143.126396 -30.135590 -3.424378 -3.365027 -0.153118 -12.521721 0.336230 -15.642217 -55.058331 22.326224 -76.344584 65.785592 -81.068632 30.581612 6.042098 15.230355 0.068092 -0.370379 0.030109
-126.937658 49.085699 19.808331 175.067149 -31.117622 -4.798451 0.842269 18.346793 1.344558 0.090522 2.087561 0.105408 0.154616 3.457855 0.189750 0.833393 16.029052 0.995848 3.380796 19.127564 -2.845945 7.066962 -0.015349 -6.254510 -2.381973 -1.798605 -3.123427 3.904344 -10.529683 -12.412009 -41.727979 -52.421589 90.572643 3.437791 3.610273 -13.230978 0.836994 -1.846708 2.515688 -6.811908 -4.469864 15.799971 78.581570 -67.004036 -114.535173 5.173937 11.497555 12.899364 -6.630502 -52.955929 -5.033776 -155.514617 82.571081 -143.115841 -30.123895 -3.401091 -3.319571 -0.179978 -12.523852 0.330351 -15.641762 -55.057877 22.298565 -76.315356 65.782019 -81.038697 30.567836 6.077922 15.239817 0.087825 -0.387165 0.037952
-126.947522 49.096580 19.811699 175.108217 -31.129824 -4.822797 0.811605 18.366498 1.364463 0.092298 2.093054 0.124318 0.148630 3.452842 0.164426 0.835254 16.046259 1.045673 3.397191 19.141904 -2.817461 7.087272 0.010271 -6.206457 -2.385526 -1.812615 -3.170218 3.879737 -10.469904 -12.366713 -41.806183 -52.433912 90.653998 3.497355 3.633145 -13.227200 0.840653 -1.853922 2.479558 -6.819651 -4.444932 15.854058 78.632507 -66.996080 -114.618480 5.199146 11.465542 12.917821 -6.625440 -52.943728 -5.057519 -155.540463 82.567299 -143.140405 -30.123547 -3.390545 -3.297022 -0.188881 -12.521980 0.328217 -15.648319 -55.052295 22.289689 -76.314286 65.772602 -81.030533 30.544099 6.101074 15.234685 0.120627 -0.393613 0.050184
